<?xml version="1.0" encoding="UTF-8"?>
<?xml-stylesheet href="daySvgStyle.css" type="text/css"?><svg xmlns="http://www.w3.org/2000/svg" version="1.2" baseProfile="tiny" xml:space="preserve" style="shape-rendering:geometricPrecision; fill-rule:evenodd;" width="6.2mm" height="6.2mm" viewBox="0 0 6.2 6.2">
  <title>VOLCANO01</title>
  <desc>Symbol for marking a submarine volcano</desc>
  <metadata>
    <iho:S100SVG xmlns:iho="http://www.iho.int/SVGMetadata">
      <iho:Description iho:publisher="IHB" iho:creationDate="2022-07-14" iho:source="SevenCs GmbH" iho:format="S100SVG" iho:version="0.1"/>
    </iho:S100SVG>
  </metadata>
  <rect class="symbolBox layout" fill="none" x="0.2" y="0.2" height="5.8" width="5.8"/>
  <rect class="svgBox layout" fill="none" x="0.2" y="0.2" height="5.8" width="5.8"/>
  <path class="sl f0 sCHBLK" style="stroke-width: 0.32;" d="M 0.4,0.8 L 0.55,0.77 L 0.7,0.7 L 0.85,0.6 L 1,0.5 L 1.15,0.43 L 1.3,0.4 L 1.45,0.43 L 1.6,0.5 L 1.75,0.6 L 1.9,0.7 L 2.05,0.77 L 2.2,0.8 L 2.35,0.77 L 2.5,0.7 L 2.65,0.6 L 2.8,0.5 L 2.95,0.43 L 3.1,0.4 L 3.25,0.43 L 3.4,0.5 L 3.55,0.6 L 3.7,0.7 L 3.85,0.77 L 4,0.8 L 4.15,0.77 L 4.3,0.7 L 4.45,0.6 L 4.6,0.5 L 4.75,0.43 L 4.9,0.4 L 5.05,0.43 L 5.2,0.5 L 5.35,0.6 L 5.5,0.7 L 5.65,0.77 L 5.8,0.8"/>  
  <path class="sl f0 sCHBLK" style="stroke-width: 0.32;" d="M 1.4,5.8 L 1.6,5.3 L 1.75,4.9 L 1.9,4.5 L 2.0,4.1 L 2.1,3.7 L 2.6,4.0 L 3.0,4.05 L 3.4,4.0 L 3.9,3.7 L 4.0,4.1 L 4.1,4.5 L 4.25,4.9 L 4.4,5.3 L 4.6,5.8"/>
  <path class="sl f0 sCHBLK" style="stroke-width: 0.32;" d="M 2.5,3.3 L 1.9,1.6"/>
  <path class="sl f0 sCHBLK" style="stroke-width: 0.32;" d="M 3.0,3.5 L 3.2,1.4"/>
  <path class="sl f0 sCHBLK" style="stroke-width: 0.32;" d="M 3.4,3.4 L 4.2,1.8"/>
  <path class="sl f0 sCHBLK" style="stroke-width: 0.32;" d="M 0.4,5.8 L 5.8,5.8"/>
  <circle class="pivotPoint layout" fill="none" cx="3.0" cy="5.8" r="0.4"/>
  <path class="pivotPoint layout" d="M 1.4,5.8 L 4.6,5.8"/>
  <path class="pivotPoint layout" d="M 3.0,4.3 L 3.0,5.9"/>
</svg>
